<svg xmlns="http://www.w3.org/2000/svg" style="cursor: move;" width="1536" height="750"><g transform="translate(-220.07209229087175,-172.37537394794947) scale(1.3841176027354072)"><path class="link" style="stroke-width: 2px; stroke-opacity: 0.538034; stroke: rgb(80, 80, 80); opacity: 1;" marker-end="" d="M578,303, 694,303"></path><path class="link" style="stroke-width: 2px; stroke-opacity: 0.349376; stroke: rgb(80, 80, 80); opacity: 1;" marker-end="" d="M578,303, 694,344"></path><path class="link" style="stroke-width: 2px; stroke-opacity: 0.192286; stroke: rgb(80, 80, 80); opacity: 1;" marker-end="" d="M578,303, 694,385"></path><path class="link" style="stroke-width: 2px; stroke-opacity: 0.874928; stroke: rgb(80, 80, 80); opacity: 1;" marker-end="" d="M578,303, 694,426"></path><path class="link" style="stroke-width: 2px; stroke-opacity: 0.0246183; stroke: rgb(80, 80, 80); opacity: 1;" marker-end="" d="M578,303, 694,467"></path><path class="link" style="stroke-width: 2px; stroke-opacity: 0.744387; stroke: rgb(80, 80, 80); opacity: 1;" marker-end="" d="M578,344, 694,303"></path><path class="link" style="stroke-width: 2px; stroke-opacity: 0.500117; stroke: rgb(80, 80, 80); opacity: 1;" marker-end="" d="M578,344, 694,344"></path><path class="link" style="stroke-width: 2px; stroke-opacity: 0.390423; stroke: rgb(80, 80, 80); opacity: 1;" marker-end="" d="M578,344, 694,385"></path><path class="link" style="stroke-width: 2px; stroke-opacity: 0.73268; stroke: rgb(80, 80, 80); opacity: 1;" marker-end="" d="M578,344, 694,426"></path><path class="link" style="stroke-width: 2px; stroke-opacity: 0.148364; stroke: rgb(80, 80, 80); opacity: 1;" marker-end="" d="M578,344, 694,467"></path><path class="link" style="stroke-width: 2px; stroke-opacity: 0.0283168; stroke: rgb(80, 80, 80); opacity: 1;" marker-end="" d="M578,385, 694,303"></path><path class="link" style="stroke-width: 2px; stroke-opacity: 0.305726; stroke: rgb(80, 80, 80); opacity: 1;" marker-end="" d="M578,385, 694,344"></path><path class="link" style="stroke-width: 2px; stroke-opacity: 0.643308; stroke: rgb(80, 80, 80); opacity: 1;" marker-end="" d="M578,385, 694,385"></path><path class="link" style="stroke-width: 2px; stroke-opacity: 0.175197; stroke: rgb(80, 80, 80); opacity: 1;" marker-end="" d="M578,385, 694,426"></path><path class="link" style="stroke-width: 2px; stroke-opacity: 0.213562; stroke: rgb(80, 80, 80); opacity: 1;" marker-end="" d="M578,385, 694,467"></path><path class="link" style="stroke-width: 2px; stroke-opacity: 0.41156; stroke: rgb(80, 80, 80); opacity: 1;" marker-end="" d="M578,426, 694,303"></path><path class="link" style="stroke-width: 2px; stroke-opacity: 0.744552; stroke: rgb(80, 80, 80); opacity: 1;" marker-end="" d="M578,426, 694,344"></path><path class="link" style="stroke-width: 2px; stroke-opacity: 0.788866; stroke: rgb(80, 80, 80); opacity: 1;" marker-end="" d="M578,426, 694,385"></path><path class="link" style="stroke-width: 2px; stroke-opacity: 0.249396; stroke: rgb(80, 80, 80); opacity: 1;" marker-end="" d="M578,426, 694,426"></path><path class="link" style="stroke-width: 2px; stroke-opacity: 0.417303; stroke: rgb(80, 80, 80); opacity: 1;" marker-end="" d="M578,426, 694,467"></path><path class="link" style="stroke-width: 2px; stroke-opacity: 0.905371; stroke: rgb(80, 80, 80); opacity: 1;" marker-end="" d="M694,262, 810,262"></path><path class="link" style="stroke-width: 2px; stroke-opacity: 0.576042; stroke: rgb(80, 80, 80); opacity: 1;" marker-end="" d="M694,262, 810,303"></path><path class="link" style="stroke-width: 2px; stroke-opacity: 0.98973; stroke: rgb(80, 80, 80); opacity: 1;" marker-end="" d="M694,262, 810,344"></path><path class="link" style="stroke-width: 2px; stroke-opacity: 0.242223; stroke: rgb(80, 80, 80); opacity: 1;" marker-end="" d="M694,262, 810,385"></path><path class="link" style="stroke-width: 2px; stroke-opacity: 0.401941; stroke: rgb(80, 80, 80); opacity: 1;" marker-end="" d="M694,262, 810,426"></path><path class="link" style="stroke-width: 2px; stroke-opacity: 0.433236; stroke: rgb(80, 80, 80); opacity: 1;" marker-end="" d="M694,262, 810,467"></path><path class="link" style="stroke-width: 2px; stroke-opacity: 0.00623928; stroke: rgb(80, 80, 80); opacity: 1;" marker-end="" d="M694,262, 810,508"></path><path class="link" style="stroke-width: 2px; stroke-opacity: 0.829271; stroke: rgb(80, 80, 80); opacity: 1;" marker-end="" d="M694,303, 810,262"></path><path class="link" style="stroke-width: 2px; stroke-opacity: 0.75355; stroke: rgb(80, 80, 80); opacity: 1;" marker-end="" d="M694,303, 810,303"></path><path class="link" style="stroke-width: 2px; stroke-opacity: 0.886088; stroke: rgb(80, 80, 80); opacity: 1;" marker-end="" d="M694,303, 810,344"></path><path class="link" style="stroke-width: 2px; stroke-opacity: 0.709569; stroke: rgb(80, 80, 80); opacity: 1;" marker-end="" d="M694,303, 810,385"></path><path class="link" style="stroke-width: 2px; stroke-opacity: 0.150534; stroke: rgb(80, 80, 80); opacity: 1;" marker-end="" d="M694,303, 810,426"></path><path class="link" style="stroke-width: 2px; stroke-opacity: 0.0420718; stroke: rgb(80, 80, 80); opacity: 1;" marker-end="" d="M694,303, 810,467"></path><path class="link" style="stroke-width: 2px; stroke-opacity: 0.823307; stroke: rgb(80, 80, 80); opacity: 1;" marker-end="" d="M694,303, 810,508"></path><path class="link" style="stroke-width: 2px; stroke-opacity: 0.908606; stroke: rgb(80, 80, 80); opacity: 1;" marker-end="" d="M694,344, 810,262"></path><path class="link" style="stroke-width: 2px; stroke-opacity: 0.144901; stroke: rgb(80, 80, 80); opacity: 1;" marker-end="" d="M694,344, 810,303"></path><path class="link" style="stroke-width: 2px; stroke-opacity: 0.784066; stroke: rgb(80, 80, 80); opacity: 1;" marker-end="" d="M694,344, 810,344"></path><path class="link" style="stroke-width: 2px; stroke-opacity: 0.838526; stroke: rgb(80, 80, 80); opacity: 1;" marker-end="" d="M694,344, 810,385"></path><path class="link" style="stroke-width: 2px; stroke-opacity: 0.544292; stroke: rgb(80, 80, 80); opacity: 1;" marker-end="" d="M694,344, 810,426"></path><path class="link" style="stroke-width: 2px; stroke-opacity: 0.466527; stroke: rgb(80, 80, 80); opacity: 1;" marker-end="" d="M694,344, 810,467"></path><path class="link" style="stroke-width: 2px; stroke-opacity: 0.075057; stroke: rgb(80, 80, 80); opacity: 1;" marker-end="" d="M694,344, 810,508"></path><path class="link" style="stroke-width: 2px; stroke-opacity: 0.796845; stroke: rgb(80, 80, 80); opacity: 1;" marker-end="" d="M694,385, 810,262"></path><path class="link" style="stroke-width: 2px; stroke-opacity: 0.458024; stroke: rgb(80, 80, 80); opacity: 1;" marker-end="" d="M694,385, 810,303"></path><path class="link" style="stroke-width: 2px; stroke-opacity: 0.0135677; stroke: rgb(80, 80, 80); opacity: 1;" marker-end="" d="M694,385, 810,344"></path><path class="link" style="stroke-width: 2px; stroke-opacity: 0.646435; stroke: rgb(80, 80, 80); opacity: 1;" marker-end="" d="M694,385, 810,385"></path><path class="link" style="stroke-width: 2px; stroke-opacity: 0.0495253; stroke: rgb(80, 80, 80); opacity: 1;" marker-end="" d="M694,385, 810,426"></path><path class="link" style="stroke-width: 2px; stroke-opacity: 0.129023; stroke: rgb(80, 80, 80); opacity: 1;" marker-end="" d="M694,385, 810,467"></path><path class="link" style="stroke-width: 2px; stroke-opacity: 0.487674; stroke: rgb(80, 80, 80); opacity: 1;" marker-end="" d="M694,385, 810,508"></path><path class="link" style="stroke-width: 2px; stroke-opacity: 0.521767; stroke: rgb(80, 80, 80); opacity: 1;" marker-end="" d="M694,426, 810,262"></path><path class="link" style="stroke-width: 2px; stroke-opacity: 0.382642; stroke: rgb(80, 80, 80); opacity: 1;" marker-end="" d="M694,426, 810,303"></path><path class="link" style="stroke-width: 2px; stroke-opacity: 0.00440957; stroke: rgb(80, 80, 80); opacity: 1;" marker-end="" d="M694,426, 810,344"></path><path class="link" style="stroke-width: 2px; stroke-opacity: 0.659399; stroke: rgb(80, 80, 80); opacity: 1;" marker-end="" d="M694,426, 810,385"></path><path class="link" style="stroke-width: 2px; stroke-opacity: 0.397355; stroke: rgb(80, 80, 80); opacity: 1;" marker-end="" d="M694,426, 810,426"></path><path class="link" style="stroke-width: 2px; stroke-opacity: 0.330817; stroke: rgb(80, 80, 80); opacity: 1;" marker-end="" d="M694,426, 810,467"></path><path class="link" style="stroke-width: 2px; stroke-opacity: 0.660902; stroke: rgb(80, 80, 80); opacity: 1;" marker-end="" d="M694,426, 810,508"></path><path class="link" style="stroke-width: 2px; stroke-opacity: 0.83828; stroke: rgb(80, 80, 80); opacity: 1;" marker-end="" d="M694,467, 810,262"></path><path class="link" style="stroke-width: 2px; stroke-opacity: 0.598284; stroke: rgb(80, 80, 80); opacity: 1;" marker-end="" d="M694,467, 810,303"></path><path class="link" style="stroke-width: 2px; stroke-opacity: 0.106583; stroke: rgb(80, 80, 80); opacity: 1;" marker-end="" d="M694,467, 810,344"></path><path class="link" style="stroke-width: 2px; stroke-opacity: 0.0521681; stroke: rgb(80, 80, 80); opacity: 1;" marker-end="" d="M694,467, 810,385"></path><path class="link" style="stroke-width: 2px; stroke-opacity: 0.356441; stroke: rgb(80, 80, 80); opacity: 1;" marker-end="" d="M694,467, 810,426"></path><path class="link" style="stroke-width: 2px; stroke-opacity: 0.235658; stroke: rgb(80, 80, 80); opacity: 1;" marker-end="" d="M694,467, 810,467"></path><path class="link" style="stroke-width: 2px; stroke-opacity: 0.23828; stroke: rgb(80, 80, 80); opacity: 1;" marker-end="" d="M694,467, 810,508"></path><path class="link" style="stroke-width: 2px; stroke-opacity: 0.576657; stroke: rgb(80, 80, 80); opacity: 1;" marker-end="" d="M810,221, 926,221"></path><path class="link" style="stroke-width: 2px; stroke-opacity: 0.755077; stroke: rgb(80, 80, 80); opacity: 1;" marker-end="" d="M810,262, 926,221"></path><path class="link" style="stroke-width: 2px; stroke-opacity: 0.748361; stroke: rgb(80, 80, 80); opacity: 1;" marker-end="" d="M810,303, 926,221"></path><path class="link" style="stroke-width: 2px; stroke-opacity: 0.174031; stroke: rgb(80, 80, 80); opacity: 1;" marker-end="" d="M810,344, 926,221"></path><path class="link" style="stroke-width: 2px; stroke-opacity: 0.838479; stroke: rgb(80, 80, 80); opacity: 1;" marker-end="" d="M810,385, 926,221"></path><path class="link" style="stroke-width: 2px; stroke-opacity: 0.887857; stroke: rgb(80, 80, 80); opacity: 1;" marker-end="" d="M810,426, 926,221"></path><path class="link" style="stroke-width: 2px; stroke-opacity: 0.10906; stroke: rgb(80, 80, 80); opacity: 1;" marker-end="" d="M810,467, 926,221"></path><path class="link" style="stroke-width: 2px; stroke-opacity: 0.169751; stroke: rgb(80, 80, 80); opacity: 1;" marker-end="" d="M810,508, 926,221"></path><path class="link" style="stroke-width: 2px; stroke-opacity: 0.380718; stroke: rgb(80, 80, 80); opacity: 1;" marker-end="" d="M578,303, 694,262"></path><path class="link" style="stroke-width: 2px; stroke-opacity: 0.100386; stroke: rgb(80, 80, 80); opacity: 1;" marker-end="" d="M578,344, 694,262"></path><path class="link" style="stroke-width: 2px; stroke-opacity: 0.418306; stroke: rgb(80, 80, 80); opacity: 1;" marker-end="" d="M578,385, 694,262"></path><path class="link" style="stroke-width: 2px; stroke-opacity: 0.383616; stroke: rgb(80, 80, 80); opacity: 1;" marker-end="" d="M578,426, 694,262"></path><path class="link" style="stroke-width: 2px; stroke-opacity: 0.0717559; stroke: rgb(80, 80, 80); opacity: 1;" marker-end="" d="M694,262, 810,221"></path><path class="link" style="stroke-width: 2px; stroke-opacity: 0.72261; stroke: rgb(80, 80, 80); opacity: 1;" marker-end="" d="M694,303, 810,221"></path><path class="link" style="stroke-width: 2px; stroke-opacity: 0.54244; stroke: rgb(80, 80, 80); opacity: 1;" marker-end="" d="M694,344, 810,221"></path><path class="link" style="stroke-width: 2px; stroke-opacity: 0.0608111; stroke: rgb(80, 80, 80); opacity: 1;" marker-end="" d="M694,385, 810,221"></path><path class="link" style="stroke-width: 2px; stroke-opacity: 0.36652; stroke: rgb(80, 80, 80); opacity: 1;" marker-end="" d="M694,426, 810,221"></path><path class="link" style="stroke-width: 2px; stroke-opacity: 0.310151; stroke: rgb(80, 80, 80); opacity: 1;" marker-end="" d="M694,467, 810,221"></path><path class="link" style="stroke-width: 2px; stroke-opacity: 0.484696; stroke: rgb(80, 80, 80); opacity: 1;" marker-end="" d="M810,221, 926,262"></path><path class="link" style="stroke-width: 2px; stroke-opacity: 0.045327; stroke: rgb(80, 80, 80); opacity: 1;" marker-end="" d="M810,221, 926,303"></path><path class="link" style="stroke-width: 2px; stroke-opacity: 0.712531; stroke: rgb(80, 80, 80); opacity: 1;" marker-end="" d="M810,221, 926,344"></path><path class="link" style="stroke-width: 2px; stroke-opacity: 0.918083; stroke: rgb(80, 80, 80); opacity: 1;" marker-end="" d="M810,221, 926,385"></path><path class="link" style="stroke-width: 2px; stroke-opacity: 0.467853; stroke: rgb(80, 80, 80); opacity: 1;" marker-end="" d="M810,221, 926,426"></path><path class="link" style="stroke-width: 2px; stroke-opacity: 0.973686; stroke: rgb(80, 80, 80); opacity: 1;" marker-end="" d="M810,221, 926,467"></path><path class="link" style="stroke-width: 2px; stroke-opacity: 0.82748; stroke: rgb(80, 80, 80); opacity: 1;" marker-end="" d="M810,221, 926,508"></path><path class="link" style="stroke-width: 2px; stroke-opacity: 0.48522; stroke: rgb(80, 80, 80); opacity: 1;" marker-end="" d="M810,262, 926,262"></path><path class="link" style="stroke-width: 2px; stroke-opacity: 0.01709; stroke: rgb(80, 80, 80); opacity: 1;" marker-end="" d="M810,262, 926,303"></path><path class="link" style="stroke-width: 2px; stroke-opacity: 0.252299; stroke: rgb(80, 80, 80); opacity: 1;" marker-end="" d="M810,262, 926,344"></path><path class="link" style="stroke-width: 2px; stroke-opacity: 0.915325; stroke: rgb(80, 80, 80); opacity: 1;" marker-end="" d="M810,262, 926,385"></path><path class="link" style="stroke-width: 2px; stroke-opacity: 0.108402; stroke: rgb(80, 80, 80); opacity: 1;" marker-end="" d="M810,262, 926,426"></path><path class="link" style="stroke-width: 2px; stroke-opacity: 0.937411; stroke: rgb(80, 80, 80); opacity: 1;" marker-end="" d="M810,262, 926,467"></path><path class="link" style="stroke-width: 2px; stroke-opacity: 0.0731506; stroke: rgb(80, 80, 80); opacity: 1;" marker-end="" d="M810,262, 926,508"></path><path class="link" style="stroke-width: 2px; stroke-opacity: 0.672714; stroke: rgb(80, 80, 80); opacity: 1;" marker-end="" d="M810,303, 926,262"></path><path class="link" style="stroke-width: 2px; stroke-opacity: 0.156233; stroke: rgb(80, 80, 80); opacity: 1;" marker-end="" d="M810,303, 926,303"></path><path class="link" style="stroke-width: 2px; stroke-opacity: 0.441502; stroke: rgb(80, 80, 80); opacity: 1;" marker-end="" d="M810,303, 926,344"></path><path class="link" style="stroke-width: 2px; stroke-opacity: 0.872604; stroke: rgb(80, 80, 80); opacity: 1;" marker-end="" d="M810,303, 926,385"></path><path class="link" style="stroke-width: 2px; stroke-opacity: 0.190119; stroke: rgb(80, 80, 80); opacity: 1;" marker-end="" d="M810,303, 926,426"></path><path class="link" style="stroke-width: 2px; stroke-opacity: 0.757338; stroke: rgb(80, 80, 80); opacity: 1;" marker-end="" d="M810,303, 926,467"></path><path class="link" style="stroke-width: 2px; stroke-opacity: 0.556663; stroke: rgb(80, 80, 80); opacity: 1;" marker-end="" d="M810,303, 926,508"></path><path class="link" style="stroke-width: 2px; stroke-opacity: 0.0370348; stroke: rgb(80, 80, 80); opacity: 1;" marker-end="" d="M810,344, 926,262"></path><path class="link" style="stroke-width: 2px; stroke-opacity: 0.709896; stroke: rgb(80, 80, 80); opacity: 1;" marker-end="" d="M810,344, 926,303"></path><path class="link" style="stroke-width: 2px; stroke-opacity: 0.685087; stroke: rgb(80, 80, 80); opacity: 1;" marker-end="" d="M810,344, 926,344"></path><path class="link" style="stroke-width: 2px; stroke-opacity: 0.939269; stroke: rgb(80, 80, 80); opacity: 1;" marker-end="" d="M810,344, 926,385"></path><path class="link" style="stroke-width: 2px; stroke-opacity: 0.0942885; stroke: rgb(80, 80, 80); opacity: 1;" marker-end="" d="M810,344, 926,426"></path><path class="link" style="stroke-width: 2px; stroke-opacity: 0.822465; stroke: rgb(80, 80, 80); opacity: 1;" marker-end="" d="M810,344, 926,467"></path><path class="link" style="stroke-width: 2px; stroke-opacity: 0.220645; stroke: rgb(80, 80, 80); opacity: 1;" marker-end="" d="M810,344, 926,508"></path><path class="link" style="stroke-width: 2px; stroke-opacity: 0.559829; stroke: rgb(80, 80, 80); opacity: 1;" marker-end="" d="M810,385, 926,262"></path><path class="link" style="stroke-width: 2px; stroke-opacity: 0.847197; stroke: rgb(80, 80, 80); opacity: 1;" marker-end="" d="M810,385, 926,303"></path><path class="link" style="stroke-width: 2px; stroke-opacity: 0.260529; stroke: rgb(80, 80, 80); opacity: 1;" marker-end="" d="M810,385, 926,344"></path><path class="link" style="stroke-width: 2px; stroke-opacity: 0.135168; stroke: rgb(80, 80, 80); opacity: 1;" marker-end="" d="M810,385, 926,385"></path><path class="link" style="stroke-width: 2px; stroke-opacity: 0.557518; stroke: rgb(80, 80, 80); opacity: 1;" marker-end="" d="M810,385, 926,426"></path><path class="link" style="stroke-width: 2px; stroke-opacity: 0.319326; stroke: rgb(80, 80, 80); opacity: 1;" marker-end="" d="M810,385, 926,467"></path><path class="link" style="stroke-width: 2px; stroke-opacity: 0.607339; stroke: rgb(80, 80, 80); opacity: 1;" marker-end="" d="M810,385, 926,508"></path><path class="link" style="stroke-width: 2px; stroke-opacity: 0.873004; stroke: rgb(80, 80, 80); opacity: 1;" marker-end="" d="M810,426, 926,262"></path><path class="link" style="stroke-width: 2px; stroke-opacity: 0.566523; stroke: rgb(80, 80, 80); opacity: 1;" marker-end="" d="M810,426, 926,303"></path><path class="link" style="stroke-width: 2px; stroke-opacity: 0.826435; stroke: rgb(80, 80, 80); opacity: 1;" marker-end="" d="M810,426, 926,344"></path><path class="link" style="stroke-width: 2px; stroke-opacity: 0.953227; stroke: rgb(80, 80, 80); opacity: 1;" marker-end="" d="M810,426, 926,385"></path><path class="link" style="stroke-width: 2px; stroke-opacity: 0.531471; stroke: rgb(80, 80, 80); opacity: 1;" marker-end="" d="M810,426, 926,426"></path><path class="link" style="stroke-width: 2px; stroke-opacity: 0.283032; stroke: rgb(80, 80, 80); opacity: 1;" marker-end="" d="M810,426, 926,467"></path><path class="link" style="stroke-width: 2px; stroke-opacity: 0.190708; stroke: rgb(80, 80, 80); opacity: 1;" marker-end="" d="M810,426, 926,508"></path><path class="link" style="stroke-width: 2px; stroke-opacity: 0.638842; stroke: rgb(80, 80, 80); opacity: 1;" marker-end="" d="M810,467, 926,262"></path><path class="link" style="stroke-width: 2px; stroke-opacity: 0.736013; stroke: rgb(80, 80, 80); opacity: 1;" marker-end="" d="M810,467, 926,303"></path><path class="link" style="stroke-width: 2px; stroke-opacity: 0.695113; stroke: rgb(80, 80, 80); opacity: 1;" marker-end="" d="M810,467, 926,344"></path><path class="link" style="stroke-width: 2px; stroke-opacity: 0.347204; stroke: rgb(80, 80, 80); opacity: 1;" marker-end="" d="M810,467, 926,385"></path><path class="link" style="stroke-width: 2px; stroke-opacity: 0.832773; stroke: rgb(80, 80, 80); opacity: 1;" marker-end="" d="M810,467, 926,426"></path><path class="link" style="stroke-width: 2px; stroke-opacity: 0.0102705; stroke: rgb(80, 80, 80); opacity: 1;" marker-end="" d="M810,467, 926,467"></path><path class="link" style="stroke-width: 2px; stroke-opacity: 0.299599; stroke: rgb(80, 80, 80); opacity: 1;" marker-end="" d="M810,467, 926,508"></path><path class="link" style="stroke-width: 2px; stroke-opacity: 0.906611; stroke: rgb(80, 80, 80); opacity: 1;" marker-end="" d="M810,508, 926,262"></path><path class="link" style="stroke-width: 2px; stroke-opacity: 0.480608; stroke: rgb(80, 80, 80); opacity: 1;" marker-end="" d="M810,508, 926,303"></path><path class="link" style="stroke-width: 2px; stroke-opacity: 0.992743; stroke: rgb(80, 80, 80); opacity: 1;" marker-end="" d="M810,508, 926,344"></path><path class="link" style="stroke-width: 2px; stroke-opacity: 0.610789; stroke: rgb(80, 80, 80); opacity: 1;" marker-end="" d="M810,508, 926,385"></path><path class="link" style="stroke-width: 2px; stroke-opacity: 0.940415; stroke: rgb(80, 80, 80); opacity: 1;" marker-end="" d="M810,508, 926,426"></path><path class="link" style="stroke-width: 2px; stroke-opacity: 0.211711; stroke: rgb(80, 80, 80); opacity: 1;" marker-end="" d="M810,508, 926,467"></path><path class="link" style="stroke-width: 2px; stroke-opacity: 0.973849; stroke: rgb(80, 80, 80); opacity: 1;" marker-end="" d="M810,508, 926,508"></path><path class="link" style="stroke-width: 2px; stroke-opacity: 0.360836; stroke: rgb(80, 80, 80); opacity: 1;" marker-end="" d="M926,221, 1042,303"></path><path class="link" style="stroke-width: 2px; stroke-opacity: 0.278389; stroke: rgb(80, 80, 80); opacity: 1;" marker-end="" d="M926,221, 1042,344"></path><path class="link" style="stroke-width: 2px; stroke-opacity: 0.63235; stroke: rgb(80, 80, 80); opacity: 1;" marker-end="" d="M926,262, 1042,303"></path><path class="link" style="stroke-width: 2px; stroke-opacity: 0.902978; stroke: rgb(80, 80, 80); opacity: 1;" marker-end="" d="M926,262, 1042,344"></path><path class="link" style="stroke-width: 2px; stroke-opacity: 0.331674; stroke: rgb(80, 80, 80); opacity: 1;" marker-end="" d="M926,303, 1042,303"></path><path class="link" style="stroke-width: 2px; stroke-opacity: 0.822205; stroke: rgb(80, 80, 80); opacity: 1;" marker-end="" d="M926,303, 1042,344"></path><path class="link" style="stroke-width: 2px; stroke-opacity: 0.572062; stroke: rgb(80, 80, 80); opacity: 1;" marker-end="" d="M926,344, 1042,303"></path><path class="link" style="stroke-width: 2px; stroke-opacity: 0.349708; stroke: rgb(80, 80, 80); opacity: 1;" marker-end="" d="M926,344, 1042,344"></path><path class="link" style="stroke-width: 2px; stroke-opacity: 0.477296; stroke: rgb(80, 80, 80); opacity: 1;" marker-end="" d="M926,385, 1042,303"></path><path class="link" style="stroke-width: 2px; stroke-opacity: 0.156216; stroke: rgb(80, 80, 80); opacity: 1;" marker-end="" d="M926,385, 1042,344"></path><path class="link" style="stroke-width: 2px; stroke-opacity: 0.777014; stroke: rgb(80, 80, 80); opacity: 1;" marker-end="" d="M926,426, 1042,303"></path><path class="link" style="stroke-width: 2px; stroke-opacity: 0.840702; stroke: rgb(80, 80, 80); opacity: 1;" marker-end="" d="M926,426, 1042,344"></path><path class="link" style="stroke-width: 2px; stroke-opacity: 0.556318; stroke: rgb(80, 80, 80); opacity: 1;" marker-end="" d="M926,467, 1042,303"></path><path class="link" style="stroke-width: 2px; stroke-opacity: 0.355658; stroke: rgb(80, 80, 80); opacity: 1;" marker-end="" d="M926,467, 1042,344"></path><path class="link" style="stroke-width: 2px; stroke-opacity: 0.703127; stroke: rgb(80, 80, 80); opacity: 1;" marker-end="" d="M926,508, 1042,303"></path><path class="link" style="stroke-width: 2px; stroke-opacity: 0.101212; stroke: rgb(80, 80, 80); opacity: 1;" marker-end="" d="M926,508, 1042,344"></path><path class="link" style="stroke-width: 2px; stroke-opacity: 0.81534; stroke: rgb(80, 80, 80); opacity: 1;" marker-end="" d="M1042,303, 1158,364.5"></path><path class="link" style="stroke-width: 2px; stroke-opacity: 0.293385; stroke: rgb(80, 80, 80); opacity: 1;" marker-end="" d="M1042,344, 1158,364.5"></path><path class="link" style="stroke-width: 2px; stroke-opacity: 0.852802; stroke: rgb(80, 80, 80); opacity: 1;" marker-end="" d="M926,221, 1042,385"></path><path class="link" style="stroke-width: 2px; stroke-opacity: 0.915737; stroke: rgb(80, 80, 80); opacity: 1;" marker-end="" d="M926,221, 1042,426"></path><path class="link" style="stroke-width: 2px; stroke-opacity: 0.094007; stroke: rgb(80, 80, 80); opacity: 1;" marker-end="" d="M926,262, 1042,385"></path><path class="link" style="stroke-width: 2px; stroke-opacity: 0.700749; stroke: rgb(80, 80, 80); opacity: 1;" marker-end="" d="M926,262, 1042,426"></path><path class="link" style="stroke-width: 2px; stroke-opacity: 0.287981; stroke: rgb(80, 80, 80); opacity: 1;" marker-end="" d="M926,303, 1042,385"></path><path class="link" style="stroke-width: 2px; stroke-opacity: 0.157002; stroke: rgb(80, 80, 80); opacity: 1;" marker-end="" d="M926,303, 1042,426"></path><path class="link" style="stroke-width: 2px; stroke-opacity: 0.611737; stroke: rgb(80, 80, 80); opacity: 1;" marker-end="" d="M926,344, 1042,385"></path><path class="link" style="stroke-width: 2px; stroke-opacity: 0.858687; stroke: rgb(80, 80, 80); opacity: 1;" marker-end="" d="M926,344, 1042,426"></path><path class="link" style="stroke-width: 2px; stroke-opacity: 0.855246; stroke: rgb(80, 80, 80); opacity: 1;" marker-end="" d="M926,385, 1042,385"></path><path class="link" style="stroke-width: 2px; stroke-opacity: 0.0995876; stroke: rgb(80, 80, 80); opacity: 1;" marker-end="" d="M926,385, 1042,426"></path><path class="link" style="stroke-width: 2px; stroke-opacity: 0.407564; stroke: rgb(80, 80, 80); opacity: 1;" marker-end="" d="M926,426, 1042,385"></path><path class="link" style="stroke-width: 2px; stroke-opacity: 0.828972; stroke: rgb(80, 80, 80); opacity: 1;" marker-end="" d="M926,426, 1042,426"></path><path class="link" style="stroke-width: 2px; stroke-opacity: 0.856072; stroke: rgb(80, 80, 80); opacity: 1;" marker-end="" d="M926,467, 1042,385"></path><path class="link" style="stroke-width: 2px; stroke-opacity: 0.0722387; stroke: rgb(80, 80, 80); opacity: 1;" marker-end="" d="M926,467, 1042,426"></path><path class="link" style="stroke-width: 2px; stroke-opacity: 0.747327; stroke: rgb(80, 80, 80); opacity: 1;" marker-end="" d="M926,508, 1042,385"></path><path class="link" style="stroke-width: 2px; stroke-opacity: 0.881888; stroke: rgb(80, 80, 80); opacity: 1;" marker-end="" d="M926,508, 1042,426"></path><path class="link" style="stroke-width: 2px; stroke-opacity: 0.749445; stroke: rgb(80, 80, 80); opacity: 1;" marker-end="" d="M1042,385, 1158,364.5"></path><path class="link" style="stroke-width: 2px; stroke-opacity: 0.764014; stroke: rgb(80, 80, 80); opacity: 1;" marker-end="" d="M1042,426, 1158,364.5"></path><circle r="10.5" class="node" id="0_0" style="fill: rgb(255, 255, 255); stroke: rgb(51, 51, 51); opacity: 1;" cx="578" cy="303"></circle><circle r="10.5" class="node" id="0_1" style="fill: rgb(255, 255, 255); stroke: rgb(51, 51, 51); opacity: 1;" cx="578" cy="344"></circle><circle r="10.5" class="node" id="0_2" style="fill: rgb(255, 255, 255); stroke: rgb(51, 51, 51); opacity: 1;" cx="578" cy="385"></circle><circle r="10.5" class="node" id="0_3" style="fill: rgb(255, 255, 255); stroke: rgb(51, 51, 51); opacity: 1;" cx="578" cy="426"></circle><circle r="10.5" class="node" id="1_0" style="fill: rgb(255, 255, 255); stroke: rgb(51, 51, 51); opacity: 1;" cx="694" cy="262"></circle><circle r="10.5" class="node" id="1_1" style="fill: rgb(255, 255, 255); stroke: rgb(51, 51, 51); opacity: 1;" cx="694" cy="303"></circle><circle r="10.5" class="node" id="1_2" style="fill: rgb(255, 255, 255); stroke: rgb(51, 51, 51); opacity: 1;" cx="694" cy="344"></circle><circle r="10.5" class="node" id="1_3" style="fill: rgb(255, 255, 255); stroke: rgb(51, 51, 51); opacity: 1;" cx="694" cy="385"></circle><circle r="10.5" class="node" id="1_4" style="fill: rgb(255, 255, 255); stroke: rgb(51, 51, 51); opacity: 1;" cx="694" cy="426"></circle><circle r="10.5" class="node" id="1_5" style="fill: rgb(255, 255, 255); stroke: rgb(51, 51, 51); opacity: 1;" cx="694" cy="467"></circle><circle r="10.5" class="node" id="2_0" style="fill: rgb(255, 255, 255); stroke: rgb(51, 51, 51); opacity: 1;" cx="810" cy="221"></circle><circle r="10.5" class="node" id="2_1" style="fill: rgb(255, 255, 255); stroke: rgb(51, 51, 51); opacity: 1;" cx="810" cy="262"></circle><circle r="10.5" class="node" id="2_2" style="fill: rgb(255, 255, 255); stroke: rgb(51, 51, 51); opacity: 1;" cx="810" cy="303"></circle><circle r="10.5" class="node" id="2_3" style="fill: rgb(255, 255, 255); stroke: rgb(51, 51, 51); opacity: 1;" cx="810" cy="344"></circle><circle r="10.5" class="node" id="2_4" style="fill: rgb(255, 255, 255); stroke: rgb(51, 51, 51); opacity: 1;" cx="810" cy="385"></circle><circle r="10.5" class="node" id="2_5" style="fill: rgb(255, 255, 255); stroke: rgb(51, 51, 51); opacity: 1;" cx="810" cy="426"></circle><circle r="10.5" class="node" id="2_6" style="fill: rgb(255, 255, 255); stroke: rgb(51, 51, 51); opacity: 1;" cx="810" cy="467"></circle><circle r="10.5" class="node" id="2_7" style="fill: rgb(255, 255, 255); stroke: rgb(51, 51, 51); opacity: 1;" cx="810" cy="508"></circle><circle r="10.5" class="node" id="3_0" style="fill: rgb(255, 255, 255); stroke: rgb(51, 51, 51); opacity: 1;" cx="926" cy="221"></circle><text class="text" dy=".35em" style="font-size: 12px;" x="543" y="549">Input Layer ∈ ℝ⁴</text><text class="text" dy=".35em" style="font-size: 12px;" x="659" y="549">Hidden Layer ∈ ℝ⁶</text><text class="text" dy=".35em" style="font-size: 12px;" x="775" y="549">Hidden Layer ∈ ℝ⁸</text><text class="text" dy=".35em" style="font-size: 12px;" x="891" y="549">Hidden Layer ∈ ℝ⁸</text><circle r="10.5" class="node" id="3_1" style="fill: rgb(255, 255, 255); stroke: rgb(51, 51, 51); opacity: 1;" cx="926" cy="262"></circle><circle r="10.5" class="node" id="3_2" style="fill: rgb(255, 255, 255); stroke: rgb(51, 51, 51); opacity: 1;" cx="926" cy="303"></circle><circle r="10.5" class="node" id="3_3" style="fill: rgb(255, 255, 255); stroke: rgb(51, 51, 51); opacity: 1;" cx="926" cy="344"></circle><circle r="10.5" class="node" id="3_4" style="fill: rgb(255, 255, 255); stroke: rgb(51, 51, 51); opacity: 1;" cx="926" cy="385"></circle><circle r="10.5" class="node" id="3_5" style="fill: rgb(255, 255, 255); stroke: rgb(51, 51, 51); opacity: 1;" cx="926" cy="426"></circle><circle r="10.5" class="node" id="3_6" style="fill: rgb(255, 255, 255); stroke: rgb(51, 51, 51); opacity: 1;" cx="926" cy="467"></circle><circle r="10.5" class="node" id="3_7" style="fill: rgb(255, 255, 255); stroke: rgb(51, 51, 51); opacity: 1;" cx="926" cy="508"></circle><circle r="10.5" class="node" id="4_0" style="fill: rgb(255, 255, 255); stroke: rgb(51, 51, 51); opacity: 1;" cx="1042" cy="303"></circle><circle r="10.5" class="node" id="4_1" style="fill: rgb(255, 255, 255); stroke: rgb(51, 51, 51); opacity: 1;" cx="1042" cy="344"></circle><text class="text" dy=".35em" style="font-size: 12px;" x="1007" y="549">Hidden Layer ∈ ℝ⁴</text><circle r="10.5" class="node" id="4_2" style="fill: rgb(255, 255, 255); stroke: rgb(51, 51, 51); opacity: 1;" cx="1042" cy="385"></circle><circle r="10.5" class="node" id="4_3" style="fill: rgb(255, 255, 255); stroke: rgb(51, 51, 51); opacity: 1;" cx="1042" cy="426"></circle><circle r="10.5" class="node" id="5_0" style="fill: rgb(255, 255, 255); stroke: rgb(51, 51, 51); opacity: 1;" cx="1158" cy="364.5"></circle><text class="text" dy=".35em" style="font-size: 12px;" x="1123" y="549">Output Layer ∈ ℝ¹</text></g><defs><marker id="arrow" viewBox="0 -5 10 10" markerWidth="7" markerHeight="7" orient="auto" refX="41.4"><path d="M0,-5L10,0L0,5" style="stroke: rgb(80, 80, 80); fill: none;"></path></marker></defs></svg>